<?xml version="1.0" encoding="UTF-8" ?>
<svg version="1.1" width="32" height="32" xmlns="http://www.w3.org/2000/svg" shape-rendering="crispEdges">
<rect x="0" y="0" width="4" height="2" fill="#FFFFFF" />
<rect x="28" y="0" width="4" height="2" fill="#FFFFFF" />
<rect x="0" y="2" width="2" height="30" fill="#FFFFFF" />
<rect x="30" y="2" width="2" height="30" fill="#FFFFFF" />
<rect x="10" y="6" width="4" height="14" fill="#FFFFFF" />
<rect x="8" y="8" width="2" height="10" fill="#FFFFFF" />
<rect x="14" y="8" width="2" height="4" fill="#FFFFFF" />
<rect x="6" y="10" width="2" height="4" fill="#FFFFFF" />
<rect x="14" y="18" width="2" height="6" fill="#FFFFFF" />
<rect x="20" y="18" width="4" height="8" fill="#FFFFFF" />
<rect x="12" y="20" width="2" height="2" fill="#FFFFFF" />
<rect x="16" y="20" width="4" height="6" fill="#FFFFFF" />
<rect x="24" y="20" width="2" height="4" fill="#FFFFFF" />
<rect x="18" y="26" width="4" height="2" fill="#FFFFFF" />
<rect x="2" y="30" width="2" height="2" fill="#FFFFFF" />
<rect x="28" y="30" width="2" height="2" fill="#FFFFFF" />
</svg>